<?xml version="1.0" encoding="UTF-8"?>
<!DOCTYPE svg PUBLIC "-//W3C//DTD SVG 1.1//EN" "http://www.w3.org/Graphics/SVG/1.1/DTD/svg11.dtd">
<svg xmlns="http://www.w3.org/2000/svg" version="1.1" width="500px" height="500px" style="shape-rendering:geometricPrecision; text-rendering:geometricPrecision; image-rendering:optimizeQuality; fill-rule:evenodd; clip-rule:evenodd" xmlns:xlink="http://www.w3.org/1999/xlink">
<g><path style="opacity:1" fill="#292929" d="M -0.5,-0.5 C 166.167,-0.5 332.833,-0.5 499.5,-0.5C 499.5,166.167 499.5,332.833 499.5,499.5C 332.833,499.5 166.167,499.5 -0.5,499.5C -0.5,332.833 -0.5,166.167 -0.5,-0.5 Z"/></g>
<g><path style="opacity:1" fill="#02f9aa" d="M 251.5,140.5 C 249.373,143.4 246.373,144.9 242.5,145C 242.833,145.333 243.167,145.667 243.5,146C 236.789,149.08 229.789,151.414 222.5,153C 222.833,153.333 223.167,153.667 223.5,154C 218.5,155.667 213.5,157.333 208.5,159C 208.833,159.333 209.167,159.667 209.5,160C 207.731,161.019 206.064,161.186 204.5,160.5C 202.54,161.723 200.707,163.056 199,164.5C 198.667,164.167 198.333,163.833 198,163.5C 194.882,165.24 191.715,166.907 188.5,168.5C 188.912,167.218 188.246,166.218 186.5,165.5C 188.021,156.897 190.688,148.73 194.5,141C 213.497,140.5 232.497,140.333 251.5,140.5 Z"/></g>
<g><path style="opacity:1" fill="#03f7b1" d="M 251.5,140.5 C 265.167,140.5 278.833,140.5 292.5,140.5C 292.171,143.032 291.005,144.032 289,143.5C 288,144.5 287,145.5 286,146.5C 285,146.167 284,145.833 283,145.5C 282,146.5 281,147.5 280,148.5C 279,148.167 278,147.833 277,147.5C 273.333,149.833 269.667,152.167 266,154.5C 265,154.167 264,153.833 263,153.5C 260.667,155.167 258.333,156.833 256,158.5C 255,158.167 254,157.833 253,157.5C 250.667,159.167 248.333,160.833 246,162.5C 245.667,162.167 245.333,161.833 245,161.5C 243.333,162.5 241.667,163.5 240,164.5C 239.667,164.167 239.333,163.833 239,163.5C 236.667,165.167 234.333,166.833 232,168.5C 231,168.167 230,167.833 229,167.5C 226.667,169.167 224.333,170.833 222,172.5C 221,172.167 220,171.833 219,171.5C 215.333,173.833 211.667,176.167 208,178.5C 207,178.167 206,177.833 205,177.5C 204,178.5 203,179.5 202,180.5C 201,180.167 200,179.833 199,179.5C 195.333,181.833 191.667,184.167 188,186.5C 187,186.167 186,185.833 185,185.5C 183.808,187.65 182.308,188.317 180.5,187.5C 181.898,179.899 183.898,172.566 186.5,165.5C 188.246,166.218 188.912,167.218 188.5,168.5C 191.715,166.907 194.882,165.24 198,163.5C 198.333,163.833 198.667,164.167 199,164.5C 200.707,163.056 202.54,161.723 204.5,160.5C 206.064,161.186 207.731,161.019 209.5,160C 209.167,159.667 208.833,159.333 208.5,159C 213.5,157.333 218.5,155.667 223.5,154C 223.167,153.667 222.833,153.333 222.5,153C 229.789,151.414 236.789,149.08 243.5,146C 243.167,145.667 242.833,145.333 242.5,145C 246.373,144.9 249.373,143.4 251.5,140.5 Z"/></g>
<g><path style="opacity:1" fill="#05f4b7" d="M 292.5,140.5 C 294.922,141.692 295.922,143.692 295.5,146.5C 294.498,150.513 293.498,154.513 292.5,158.5C 290.692,157.683 289.192,158.35 288,160.5C 287,160.167 286,159.833 285,159.5C 281.333,161.833 277.667,164.167 274,166.5C 273,166.167 272,165.833 271,165.5C 269.899,167.394 268.566,168.061 267,167.5C 266,168.5 265,169.5 264,170.5C 263,170.167 262,169.833 261,169.5C 257.333,171.833 253.667,174.167 250,176.5C 249,176.167 248,175.833 247,175.5C 245.899,177.394 244.566,178.061 243,177.5C 241.899,179.394 240.566,180.061 239,179.5C 238,180.5 237,181.5 236,182.5C 235,182.167 234,181.833 233,181.5C 232,182.5 231,183.5 230,184.5C 229,184.167 228,183.833 227,183.5C 223.333,185.833 219.667,188.167 216,190.5C 215,190.167 214,189.833 213,189.5C 212,190.5 211,191.5 210,192.5C 209,192.167 208,191.833 207,191.5C 203.333,193.833 199.667,196.167 196,198.5C 195,198.167 194,197.833 193,197.5C 191.899,199.394 190.566,200.061 189,199.5C 188,200.5 187,201.5 186,202.5C 185,202.167 184,201.833 183,201.5C 180.509,202.99 178.009,204.656 175.5,206.5C 176.183,199.805 177.849,193.472 180.5,187.5C 182.308,188.317 183.808,187.65 185,185.5C 186,185.833 187,186.167 188,186.5C 191.667,184.167 195.333,181.833 199,179.5C 200,179.833 201,180.167 202,180.5C 203,179.5 204,178.5 205,177.5C 206,177.833 207,178.167 208,178.5C 211.667,176.167 215.333,173.833 219,171.5C 220,171.833 221,172.167 222,172.5C 224.333,170.833 226.667,169.167 229,167.5C 230,167.833 231,168.167 232,168.5C 234.333,166.833 236.667,165.167 239,163.5C 239.333,163.833 239.667,164.167 240,164.5C 241.667,163.5 243.333,162.5 245,161.5C 245.333,161.833 245.667,162.167 246,162.5C 248.333,160.833 250.667,159.167 253,157.5C 254,157.833 255,158.167 256,158.5C 258.333,156.833 260.667,155.167 263,153.5C 264,153.833 265,154.167 266,154.5C 269.667,152.167 273.333,149.833 277,147.5C 278,147.833 279,148.167 280,148.5C 281,147.5 282,146.5 283,145.5C 284,145.833 285,146.167 286,146.5C 287,145.5 288,144.5 289,143.5C 291.005,144.032 292.171,143.032 292.5,140.5 Z"/></g>
<g><path style="opacity:1" fill="#07f2be" d="M 292.5,158.5 C 290.526,164.396 288.859,170.396 287.5,176.5C 285.194,175.215 283.361,175.882 282,178.5C 280.434,177.939 279.101,178.606 278,180.5C 277.667,180.167 277.333,179.833 277,179.5C 275.333,180.5 273.667,181.5 272,182.5C 270.434,181.939 269.101,182.606 268,184.5C 267,184.167 266,183.833 265,183.5C 261.333,185.833 257.667,188.167 254,190.5C 253,190.167 252,189.833 251,189.5C 248.667,191.167 246.333,192.833 244,194.5C 243,194.167 242,193.833 241,193.5C 239.899,195.394 238.566,196.061 237,195.5C 235.899,197.394 234.566,198.061 233,197.5C 231.333,198.5 229.667,199.5 228,200.5C 226.434,199.939 225.101,200.606 224,202.5C 223,202.167 222,201.833 221,201.5C 217.333,203.833 213.667,206.167 210,208.5C 209,208.167 208,207.833 207,207.5C 205.899,209.394 204.566,210.061 203,209.5C 201.899,211.394 200.566,212.061 199,211.5C 197.333,212.5 195.667,213.5 194,214.5C 192.434,213.939 191.101,214.606 190,216.5C 189,216.167 188,215.833 187,215.5C 183.333,217.833 179.667,220.167 176,222.5C 174.037,221.263 172.203,221.263 170.5,222.5C 171.396,216.817 173.063,211.483 175.5,206.5C 178.009,204.656 180.509,202.99 183,201.5C 184,201.833 185,202.167 186,202.5C 187,201.5 188,200.5 189,199.5C 190.566,200.061 191.899,199.394 193,197.5C 194,197.833 195,198.167 196,198.5C 199.667,196.167 203.333,193.833 207,191.5C 208,191.833 209,192.167 210,192.5C 211,191.5 212,190.5 213,189.5C 214,189.833 215,190.167 216,190.5C 219.667,188.167 223.333,185.833 227,183.5C 228,183.833 229,184.167 230,184.5C 231,183.5 232,182.5 233,181.5C 234,181.833 235,182.167 236,182.5C 237,181.5 238,180.5 239,179.5C 240.566,180.061 241.899,179.394 243,177.5C 244.566,178.061 245.899,177.394 247,175.5C 248,175.833 249,176.167 250,176.5C 253.667,174.167 257.333,171.833 261,169.5C 262,169.833 263,170.167 264,170.5C 265,169.5 266,168.5 267,167.5C 268.566,168.061 269.899,167.394 271,165.5C 272,165.833 273,166.167 274,166.5C 277.667,164.167 281.333,161.833 285,159.5C 286,159.833 287,160.167 288,160.5C 289.192,158.35 290.692,157.683 292.5,158.5 Z"/></g>
<g><path style="opacity:1" fill="#09f0c3" d="M 287.5,176.5 C 285.708,182.129 284.041,187.795 282.5,193.5C 281.153,194.171 279.986,194.171 279,193.5C 278,194.5 277,195.5 276,196.5C 275,196.167 274,195.833 273,195.5C 269.333,197.833 265.667,200.167 262,202.5C 261,202.167 260,201.833 259,201.5C 256.667,203.167 254.333,204.833 252,206.5C 251,206.167 250,205.833 249,205.5C 246.667,207.167 244.333,208.833 242,210.5C 241,210.167 240,209.833 239,209.5C 236.667,211.167 234.333,212.833 232,214.5C 231,214.167 230,213.833 229,213.5C 225.333,215.833 221.667,218.167 218,220.5C 217,220.167 216,219.833 215,219.5C 211.333,221.833 207.667,224.167 204,226.5C 203,226.167 202,225.833 201,225.5C 200,226.5 199,227.5 198,228.5C 197,228.167 196,227.833 195,227.5C 191.333,229.833 187.667,232.167 184,234.5C 183,234.167 182,233.833 181,233.5C 180,234.5 179,235.5 178,236.5C 177,236.167 176,235.833 175,235.5C 173.667,236.833 172.333,238.167 171,239.5C 170.014,238.829 168.847,238.829 167.5,239.5C 166.741,233.533 167.741,227.867 170.5,222.5C 172.203,221.263 174.037,221.263 176,222.5C 179.667,220.167 183.333,217.833 187,215.5C 188,215.833 189,216.167 190,216.5C 191.101,214.606 192.434,213.939 194,214.5C 195.667,213.5 197.333,212.5 199,211.5C 200.566,212.061 201.899,211.394 203,209.5C 204.566,210.061 205.899,209.394 207,207.5C 208,207.833 209,208.167 210,208.5C 213.667,206.167 217.333,203.833 221,201.5C 222,201.833 223,202.167 224,202.5C 225.101,200.606 226.434,199.939 228,200.5C 229.667,199.5 231.333,198.5 233,197.5C 234.566,198.061 235.899,197.394 237,195.5C 238.566,196.061 239.899,195.394 241,193.5C 242,193.833 243,194.167 244,194.5C 246.333,192.833 248.667,191.167 251,189.5C 252,189.833 253,190.167 254,190.5C 257.667,188.167 261.333,185.833 265,183.5C 266,183.833 267,184.167 268,184.5C 269.101,182.606 270.434,181.939 272,182.5C 273.667,181.5 275.333,180.5 277,179.5C 277.333,179.833 277.667,180.167 278,180.5C 279.101,178.606 280.434,177.939 282,178.5C 283.361,175.882 285.194,175.215 287.5,176.5 Z"/></g>
<g><path style="opacity:1" fill="#0deacf" d="M 349.5,199.5 C 348.603,200.598 347.77,200.598 347,199.5C 346,200.5 345,201.5 344,202.5C 343,202.167 342,201.833 341,201.5C 337.333,203.833 333.667,206.167 330,208.5C 328.853,207.542 327.853,207.875 327,209.5C 325.853,208.542 324.853,208.875 324,210.5C 323.667,210.167 323.333,209.833 323,209.5C 321.184,211.441 319.184,212.108 317,211.5C 315.899,213.394 314.566,214.061 313,213.5C 311.899,215.394 310.566,216.061 309,215.5C 307.333,216.5 305.667,217.5 304,218.5C 302.434,217.939 301.101,218.606 300,220.5C 299,220.167 298,219.833 297,219.5C 293.333,221.833 289.667,224.167 286,226.5C 285.617,225.944 285.117,225.611 284.5,225.5C 287.151,213.045 290.318,200.711 294,188.5C 294.465,187.069 295.299,185.903 296.5,185C 314.167,184.333 331.833,184.333 349.5,185C 351.852,185.576 352.852,187.076 352.5,189.5C 352.241,193.185 351.241,196.518 349.5,199.5 Z"/></g>
<g><path style="opacity:1" fill="#0beeca" d="M 282.5,193.5 C 280.297,200.777 278.297,208.11 276.5,215.5C 275.153,216.171 273.986,216.171 273,215.5C 272,216.5 271,217.5 270,218.5C 269,218.167 268,217.833 267,217.5C 265.333,219.167 263.667,220.833 262,222.5C 261,222.167 260,221.833 259,221.5C 257.333,223.167 255.667,224.833 254,226.5C 250.654,224.94 247.654,225.94 245,229.5C 244.333,228.833 243.667,228.167 243,227.5C 241.333,229.167 239.667,230.833 238,232.5C 237,232.167 236,231.833 235,231.5C 234,232.5 233,233.5 232,234.5C 231,234.167 230,233.833 229,233.5C 227.667,234.833 226.333,236.167 225,237.5C 224.333,236.833 223.667,236.167 223,235.5C 221.333,237.167 219.667,238.833 218,240.5C 217,240.167 216,239.833 215,239.5C 214.283,240.044 213.783,240.711 213.5,241.5C 198.496,241.667 183.496,241.5 168.5,241C 167.944,240.617 167.611,240.117 167.5,239.5C 168.847,238.829 170.014,238.829 171,239.5C 172.333,238.167 173.667,236.833 175,235.5C 176,235.833 177,236.167 178,236.5C 179,235.5 180,234.5 181,233.5C 182,233.833 183,234.167 184,234.5C 187.667,232.167 191.333,229.833 195,227.5C 196,227.833 197,228.167 198,228.5C 199,227.5 200,226.5 201,225.5C 202,225.833 203,226.167 204,226.5C 207.667,224.167 211.333,221.833 215,219.5C 216,219.833 217,220.167 218,220.5C 221.667,218.167 225.333,215.833 229,213.5C 230,213.833 231,214.167 232,214.5C 234.333,212.833 236.667,211.167 239,209.5C 240,209.833 241,210.167 242,210.5C 244.333,208.833 246.667,207.167 249,205.5C 250,205.833 251,206.167 252,206.5C 254.333,204.833 256.667,203.167 259,201.5C 260,201.833 261,202.167 262,202.5C 265.667,200.167 269.333,197.833 273,195.5C 274,195.833 275,196.167 276,196.5C 277,195.5 278,194.5 279,193.5C 279.986,194.171 281.153,194.171 282.5,193.5 Z"/></g>
<g><path style="opacity:1" fill="#0fe8d6" d="M 349.5,199.5 C 348.33,205.182 346.997,210.848 345.5,216.5C 343.983,216.511 342.816,217.177 342,218.5C 341,218.167 340,217.833 339,217.5C 335.333,219.833 331.667,222.167 328,224.5C 327,224.167 326,223.833 325,223.5C 321.333,225.833 317.667,228.167 314,230.5C 313,230.167 312,229.833 311,229.5C 310,230.5 309,231.5 308,232.5C 307,232.167 306,231.833 305,231.5C 301.333,233.833 297.667,236.167 294,238.5C 293,238.167 292,237.833 291,237.5C 290,238.5 289,239.5 288,240.5C 286.549,240.264 285.049,240.264 283.5,240.5C 282.883,240.389 282.383,240.056 282,239.5C 281.048,234.4 281.882,229.733 284.5,225.5C 285.117,225.611 285.617,225.944 286,226.5C 289.667,224.167 293.333,221.833 297,219.5C 298,219.833 299,220.167 300,220.5C 301.101,218.606 302.434,217.939 304,218.5C 305.667,217.5 307.333,216.5 309,215.5C 310.566,216.061 311.899,215.394 313,213.5C 314.566,214.061 315.899,213.394 317,211.5C 319.184,212.108 321.184,211.441 323,209.5C 323.333,209.833 323.667,210.167 324,210.5C 324.853,208.875 325.853,208.542 327,209.5C 327.853,207.875 328.853,207.542 330,208.5C 333.667,206.167 337.333,203.833 341,201.5C 342,201.833 343,202.167 344,202.5C 345,201.5 346,200.5 347,199.5C 347.77,200.598 348.603,200.598 349.5,199.5 Z"/></g>
<g><path style="opacity:1" fill="#0eead1" d="M 276.5,215.5 C 274.402,223.142 272.235,230.809 270,238.5C 269.167,239.333 268.333,240.167 267.5,241C 249.503,241.5 231.503,241.667 213.5,241.5C 213.783,240.711 214.283,240.044 215,239.5C 216,239.833 217,240.167 218,240.5C 219.667,238.833 221.333,237.167 223,235.5C 223.667,236.167 224.333,236.833 225,237.5C 226.333,236.167 227.667,234.833 229,233.5C 230,233.833 231,234.167 232,234.5C 233,233.5 234,232.5 235,231.5C 236,231.833 237,232.167 238,232.5C 239.667,230.833 241.333,229.167 243,227.5C 243.667,228.167 244.333,228.833 245,229.5C 247.654,225.94 250.654,224.94 254,226.5C 255.667,224.833 257.333,223.167 259,221.5C 260,221.833 261,222.167 262,222.5C 263.667,220.833 265.333,219.167 267,217.5C 268,217.833 269,218.167 270,218.5C 271,217.5 272,216.5 273,215.5C 273.986,216.171 275.153,216.171 276.5,215.5 Z"/></g>
<g><path style="opacity:1" fill="#11e6dd" d="M 345.5,216.5 C 343.17,222.995 341.337,229.661 340,236.5C 339.215,238.286 338.049,239.786 336.5,241C 318.662,241.829 300.995,241.662 283.5,240.5C 285.049,240.264 286.549,240.264 288,240.5C 289,239.5 290,238.5 291,237.5C 292,237.833 293,238.167 294,238.5C 297.667,236.167 301.333,233.833 305,231.5C 306,231.833 307,232.167 308,232.5C 309,231.5 310,230.5 311,229.5C 312,229.833 313,230.167 314,230.5C 317.667,228.167 321.333,225.833 325,223.5C 326,223.833 327,224.167 328,224.5C 331.667,222.167 335.333,219.833 339,217.5C 340,217.833 341,218.167 342,218.5C 342.816,217.177 343.983,216.511 345.5,216.5 Z"/></g>
<g><path style="opacity:1" fill="#0ee9d0" d="M 162.5,257.5 C 176.504,257.333 190.504,257.5 204.5,258C 202.869,260.451 201.036,260.951 199,259.5C 197.899,261.394 196.566,262.061 195,261.5C 193.899,263.394 192.566,264.061 191,263.5C 189.899,265.394 188.566,266.061 187,265.5C 185.333,266.5 183.667,267.5 182,268.5C 180.434,267.939 179.101,268.606 178,270.5C 177,270.167 176,269.833 175,269.5C 171.333,271.833 167.667,274.167 164,276.5C 163,276.167 162,275.833 161,275.5C 160,276.5 159,277.5 158,278.5C 157.333,277.167 156.667,277.167 156,278.5C 155.517,277.552 155.351,276.552 155.5,275.5C 156.354,270.769 157.52,266.102 159,261.5C 159.66,259.676 160.827,258.343 162.5,257.5 Z"/></g>
<g><path style="opacity:1" fill="#10e6d4" d="M 162.5,257.5 C 179.662,256.338 196.995,256.171 214.5,257C 215.667,257.5 216.5,258.333 217,259.5C 217.495,262.531 217.329,265.531 216.5,268.5C 214.033,268.858 211.866,270.191 210,272.5C 208.434,271.939 207.101,272.606 206,274.5C 205,274.167 204,273.833 203,273.5C 199.333,275.833 195.667,278.167 192,280.5C 191,280.167 190,279.833 189,279.5C 188,280.5 187,281.5 186,282.5C 185,282.167 184,281.833 183,281.5C 179.333,283.833 175.667,286.167 172,288.5C 171,288.167 170,287.833 169,287.5C 168,288.5 167,289.5 166,290.5C 165,290.167 164,289.833 163,289.5C 159.333,291.833 155.667,294.167 152,296.5C 150.961,295.756 150.461,294.756 150.5,293.5C 152.178,287.406 153.845,281.406 155.5,275.5C 155.351,276.552 155.517,277.552 156,278.5C 156.667,277.167 157.333,277.167 158,278.5C 159,277.5 160,276.5 161,275.5C 162,275.833 163,276.167 164,276.5C 167.667,274.167 171.333,271.833 175,269.5C 176,269.833 177,270.167 178,270.5C 179.101,268.606 180.434,267.939 182,268.5C 183.667,267.5 185.333,266.5 187,265.5C 188.566,266.061 189.899,265.394 191,263.5C 192.566,264.061 193.899,263.394 195,261.5C 196.566,262.061 197.899,261.394 199,259.5C 201.036,260.951 202.869,260.451 204.5,258C 190.504,257.5 176.504,257.333 162.5,257.5 Z"/></g>
<g><path style="opacity:1" fill="#12e5dd" d="M 231.5,257.5 C 250.503,257.333 269.503,257.5 288.5,258C 286.816,259.74 284.982,260.906 283,261.5C 282.333,260.833 281.667,260.167 281,259.5C 280.333,260.833 279.667,262.167 279,263.5C 278.333,262.833 277.667,262.167 277,261.5C 275.333,263.167 273.667,264.833 272,266.5C 271,266.167 270,265.833 269,265.5C 268,266.5 267,267.5 266,268.5C 265,268.167 264,267.833 263,267.5C 261.333,269.167 259.667,270.833 258,272.5C 256.333,272.167 254.667,271.833 253,271.5C 251.333,273.167 249.667,274.833 248,276.5C 247,276.167 246,275.833 245,275.5C 243.667,276.833 242.333,278.167 241,279.5C 240.333,278.833 239.667,278.167 239,277.5C 237.333,279.167 235.667,280.833 234,282.5C 233,282.167 232,281.833 231,281.5C 230,282.5 229,283.5 228,284.5C 227.333,283.167 226.667,283.167 226,284.5C 224.915,283.264 224.082,281.931 223.5,280.5C 224.86,273.396 226.693,266.396 229,259.5C 229.708,258.619 230.542,257.953 231.5,257.5 Z"/></g>
<g><path style="opacity:1" fill="#14e0e0" d="M 231.5,257.5 C 263.833,256.167 296.167,256.167 328.5,257.5C 325.675,257.081 323.509,258.081 322,260.5C 320.434,259.939 319.101,260.606 318,262.5C 317,262.167 316,261.833 315,261.5C 312.667,263.167 310.333,264.833 308,266.5C 307,266.167 306,265.833 305,265.5C 303.899,267.394 302.566,268.061 301,267.5C 299.899,269.394 298.566,270.061 297,269.5C 295.333,270.5 293.667,271.5 292,272.5C 290.434,271.939 289.101,272.606 288,274.5C 287,274.167 286,273.833 285,273.5C 281.333,275.833 277.667,278.167 274,280.5C 273,280.167 272,279.833 271,279.5C 270,280.5 269,281.5 268,282.5C 267,282.167 266,281.833 265,281.5C 261.333,283.833 257.667,286.167 254,288.5C 253.667,288.167 253.333,287.833 253,287.5C 251.333,288.5 249.667,289.5 248,290.5C 246.434,289.939 245.101,290.606 244,292.5C 243,292.167 242,291.833 241,291.5C 238.667,293.167 236.333,294.833 234,296.5C 232.853,295.542 231.853,295.875 231,297.5C 229.667,297.5 228.333,297.5 227,297.5C 225.899,299.394 224.566,300.061 223,299.5C 222,300.5 221,301.5 220,302.5C 219.049,302.116 218.216,301.783 217.5,301.5C 218.743,294.181 220.743,287.181 223.5,280.5C 224.082,281.931 224.915,283.264 226,284.5C 226.667,283.167 227.333,283.167 228,284.5C 229,283.5 230,282.5 231,281.5C 232,281.833 233,282.167 234,282.5C 235.667,280.833 237.333,279.167 239,277.5C 239.667,278.167 240.333,278.833 241,279.5C 242.333,278.167 243.667,276.833 245,275.5C 246,275.833 247,276.167 248,276.5C 249.667,274.833 251.333,273.167 253,271.5C 254.667,271.833 256.333,272.167 258,272.5C 259.667,270.833 261.333,269.167 263,267.5C 264,267.833 265,268.167 266,268.5C 267,267.5 268,266.5 269,265.5C 270,265.833 271,266.167 272,266.5C 273.667,264.833 275.333,263.167 277,261.5C 277.667,262.167 278.333,262.833 279,263.5C 279.667,262.167 280.333,260.833 281,259.5C 281.667,260.167 282.333,260.833 283,261.5C 284.982,260.906 286.816,259.74 288.5,258C 269.503,257.5 250.503,257.333 231.5,257.5 Z"/></g>
<g><path style="opacity:1" fill="#15e1e9" d="M 328.5,257.5 C 331.05,257.884 332.383,259.384 332.5,262C 331.419,265.164 330.419,268.331 329.5,271.5C 328.038,272.387 326.205,273.387 324,274.5C 321.076,274.626 318.409,275.959 316,278.5C 314.951,277.483 313.784,277.316 312.5,278C 309.5,279.667 306.5,281.333 303.5,283C 294.999,286.329 286.666,289.329 278.5,292C 277.667,292.833 276.833,293.667 276,294.5C 274.951,293.483 273.784,293.316 272.5,294C 272.833,294.333 273.167,294.667 273.5,295C 268.782,296.573 263.782,298.239 258.5,300C 257.531,301.758 256.364,302.258 255,301.5C 253.174,303.074 251.007,303.907 248.5,304C 248.833,304.333 249.167,304.667 249.5,305C 241.497,307.59 233.497,310.924 225.5,315C 221.667,316.167 217.833,317.333 214,318.5C 213.517,317.552 213.351,316.552 213.5,315.5C 214.261,310.563 215.595,305.897 217.5,301.5C 218.216,301.783 219.049,302.116 220,302.5C 221,301.5 222,300.5 223,299.5C 224.566,300.061 225.899,299.394 227,297.5C 228.333,297.5 229.667,297.5 231,297.5C 231.853,295.875 232.853,295.542 234,296.5C 236.333,294.833 238.667,293.167 241,291.5C 242,291.833 243,292.167 244,292.5C 245.101,290.606 246.434,289.939 248,290.5C 249.667,289.5 251.333,288.5 253,287.5C 253.333,287.833 253.667,288.167 254,288.5C 257.667,286.167 261.333,283.833 265,281.5C 266,281.833 267,282.167 268,282.5C 269,281.5 270,280.5 271,279.5C 272,279.833 273,280.167 274,280.5C 277.667,278.167 281.333,275.833 285,273.5C 286,273.833 287,274.167 288,274.5C 289.101,272.606 290.434,271.939 292,272.5C 293.667,271.5 295.333,270.5 297,269.5C 298.566,270.061 299.899,269.394 301,267.5C 302.566,268.061 303.899,267.394 305,265.5C 306,265.833 307,266.167 308,266.5C 310.333,264.833 312.667,263.167 315,261.5C 316,261.833 317,262.167 318,262.5C 319.101,260.606 320.434,259.939 322,260.5C 323.509,258.081 325.675,257.081 328.5,257.5 Z"/></g>
<g><path style="opacity:1" fill="#17dfef" d="M 329.5,271.5 C 328.208,277.969 326.542,284.303 324.5,290.5C 323.312,289.952 322.145,289.619 321,289.5C 317.333,291.833 313.667,294.167 310,296.5C 309,296.167 308,295.833 307,295.5C 306,296.5 305,297.5 304,298.5C 303,298.167 302,297.833 301,297.5C 297.333,299.833 293.667,302.167 290,304.5C 289,304.167 288,303.833 287,303.5C 283.333,305.833 279.667,308.167 276,310.5C 275,310.167 274,309.833 273,309.5C 270.667,311.167 268.333,312.833 266,314.5C 265.667,314.167 265.333,313.833 265,313.5C 263.184,315.441 261.184,316.108 259,315.5C 257.899,317.394 256.566,318.061 255,317.5C 254,318.5 253,319.5 252,320.5C 251,320.167 250,319.833 249,319.5C 248,320.5 247,321.5 246,322.5C 245,322.167 244,321.833 243,321.5C 239.333,323.833 235.667,326.167 232,328.5C 231,328.167 230,327.833 229,327.5C 228,328.5 227,329.5 226,330.5C 225,330.167 224,329.833 223,329.5C 219.333,331.833 215.667,334.167 212,336.5C 211.333,335.167 210.667,335.167 210,336.5C 208.961,335.756 208.461,334.756 208.5,333.5C 209.565,327.229 211.232,321.229 213.5,315.5C 213.351,316.552 213.517,317.552 214,318.5C 217.833,317.333 221.667,316.167 225.5,315C 233.497,310.924 241.497,307.59 249.5,305C 249.167,304.667 248.833,304.333 248.5,304C 251.007,303.907 253.174,303.074 255,301.5C 256.364,302.258 257.531,301.758 258.5,300C 263.782,298.239 268.782,296.573 273.5,295C 273.167,294.667 272.833,294.333 272.5,294C 273.784,293.316 274.951,293.483 276,294.5C 276.833,293.667 277.667,292.833 278.5,292C 286.666,289.329 294.999,286.329 303.5,283C 306.5,281.333 309.5,279.667 312.5,278C 313.784,277.316 314.951,277.483 316,278.5C 318.409,275.959 321.076,274.626 324,274.5C 326.205,273.387 328.038,272.387 329.5,271.5 Z"/></g>
<g><path style="opacity:1" fill="#11e5dd" d="M 216.5,268.5 C 213.855,276.414 211.522,284.414 209.5,292.5C 207.888,291.548 206.388,291.214 205,291.5C 203.667,292.833 202.333,294.167 201,295.5C 200.333,294.833 199.667,294.167 199,293.5C 197.333,295.167 195.667,296.833 194,298.5C 193,298.167 192,297.833 191,297.5C 190,298.5 189,299.5 188,300.5C 187,300.167 186,299.833 185,299.5C 183.333,301.167 181.667,302.833 180,304.5C 179,304.167 178,303.833 177,303.5C 176,304.5 175,305.5 174,306.5C 173,306.167 172,305.833 171,305.5C 168.667,307.167 166.333,308.833 164,310.5C 162.853,309.542 161.853,309.875 161,311.5C 160.333,310.833 159.667,310.167 159,309.5C 156.761,312.962 153.594,314.295 149.5,313.5C 147.124,312.488 146.124,310.655 146.5,308C 147.163,302.863 148.496,298.029 150.5,293.5C 150.461,294.756 150.961,295.756 152,296.5C 155.667,294.167 159.333,291.833 163,289.5C 164,289.833 165,290.167 166,290.5C 167,289.5 168,288.5 169,287.5C 170,287.833 171,288.167 172,288.5C 175.667,286.167 179.333,283.833 183,281.5C 184,281.833 185,282.167 186,282.5C 187,281.5 188,280.5 189,279.5C 190,279.833 191,280.167 192,280.5C 195.667,278.167 199.333,275.833 203,273.5C 204,273.833 205,274.167 206,274.5C 207.101,272.606 208.434,271.939 210,272.5C 211.866,270.191 214.033,268.858 216.5,268.5 Z"/></g>
<g><path style="opacity:1" fill="#14dfdf" d="M 209.5,292.5 C 207.779,298.834 205.946,305.167 204,311.5C 203.167,312.333 202.333,313.167 201.5,314C 183.995,314.829 166.662,314.662 149.5,313.5C 153.594,314.295 156.761,312.962 159,309.5C 159.667,310.167 160.333,310.833 161,311.5C 161.853,309.875 162.853,309.542 164,310.5C 166.333,308.833 168.667,307.167 171,305.5C 172,305.833 173,306.167 174,306.5C 175,305.5 176,304.5 177,303.5C 178,303.833 179,304.167 180,304.5C 181.667,302.833 183.333,301.167 185,299.5C 186,299.833 187,300.167 188,300.5C 189,299.5 190,298.5 191,297.5C 192,297.833 193,298.167 194,298.5C 195.667,296.833 197.333,295.167 199,293.5C 199.667,294.167 200.333,294.833 201,295.5C 202.333,294.167 203.667,292.833 205,291.5C 206.388,291.214 207.888,291.548 209.5,292.5 Z"/></g>
<g><path style="opacity:1" fill="#19dcf5" d="M 324.5,290.5 C 322.526,296.396 320.859,302.396 319.5,308.5C 317.888,307.548 316.388,307.214 315,307.5C 311.333,309.833 307.667,312.167 304,314.5C 303,314.167 302,313.833 301,313.5C 298.667,315.167 296.333,316.833 294,318.5C 293,318.167 292,317.833 291,317.5C 288.667,319.167 286.333,320.833 284,322.5C 283,322.167 282,321.833 281,321.5C 279.899,323.394 278.566,324.061 277,323.5C 275.899,325.394 274.566,326.061 273,325.5C 272,326.5 271,327.5 270,328.5C 269,328.167 268,327.833 267,327.5C 266,328.5 265,329.5 264,330.5C 263,330.167 262,329.833 261,329.5C 257.333,331.833 253.667,334.167 250,336.5C 249,336.167 248,335.833 247,335.5C 244.667,337.167 242.333,338.833 240,340.5C 239,340.167 238,339.833 237,339.5C 233.333,341.833 229.667,344.167 226,346.5C 225,346.167 224,345.833 223,345.5C 220.667,347.167 218.333,348.833 216,350.5C 215,350.167 214,349.833 213,349.5C 211.899,351.394 210.566,352.061 209,351.5C 208,352.5 207,353.5 206,354.5C 205.23,353.402 204.397,353.402 203.5,354.5C 204.089,347.149 205.755,340.149 208.5,333.5C 208.461,334.756 208.961,335.756 210,336.5C 210.667,335.167 211.333,335.167 212,336.5C 215.667,334.167 219.333,331.833 223,329.5C 224,329.833 225,330.167 226,330.5C 227,329.5 228,328.5 229,327.5C 230,327.833 231,328.167 232,328.5C 235.667,326.167 239.333,323.833 243,321.5C 244,321.833 245,322.167 246,322.5C 247,321.5 248,320.5 249,319.5C 250,319.833 251,320.167 252,320.5C 253,319.5 254,318.5 255,317.5C 256.566,318.061 257.899,317.394 259,315.5C 261.184,316.108 263.184,315.441 265,313.5C 265.333,313.833 265.667,314.167 266,314.5C 268.333,312.833 270.667,311.167 273,309.5C 274,309.833 275,310.167 276,310.5C 279.667,308.167 283.333,305.833 287,303.5C 288,303.833 289,304.167 290,304.5C 293.667,302.167 297.333,299.833 301,297.5C 302,297.833 303,298.167 304,298.5C 305,297.5 306,296.5 307,295.5C 308,295.833 309,296.167 310,296.5C 313.667,294.167 317.333,291.833 321,289.5C 322.145,289.619 323.312,289.952 324.5,290.5 Z"/></g>
<g><path style="opacity:1" fill="#1bdafd" d="M 319.5,308.5 C 315.695,321.049 312.195,333.715 309,346.5C 308.023,350.268 306.523,353.768 304.5,357C 271.5,357.667 238.5,357.667 205.5,357C 204.619,356.292 203.953,355.458 203.5,354.5C 204.397,353.402 205.23,353.402 206,354.5C 207,353.5 208,352.5 209,351.5C 210.566,352.061 211.899,351.394 213,349.5C 214,349.833 215,350.167 216,350.5C 218.333,348.833 220.667,347.167 223,345.5C 224,345.833 225,346.167 226,346.5C 229.667,344.167 233.333,341.833 237,339.5C 238,339.833 239,340.167 240,340.5C 242.333,338.833 244.667,337.167 247,335.5C 248,335.833 249,336.167 250,336.5C 253.667,334.167 257.333,331.833 261,329.5C 262,329.833 263,330.167 264,330.5C 265,329.5 266,328.5 267,327.5C 268,327.833 269,328.167 270,328.5C 271,327.5 272,326.5 273,325.5C 274.566,326.061 275.899,325.394 277,323.5C 278.566,324.061 279.899,323.394 281,321.5C 282,321.833 283,322.167 284,322.5C 286.333,320.833 288.667,319.167 291,317.5C 292,317.833 293,318.167 294,318.5C 296.333,316.833 298.667,315.167 301,313.5C 302,313.833 303,314.167 304,314.5C 307.667,312.167 311.333,309.833 315,307.5C 316.388,307.214 317.888,307.548 319.5,308.5 Z"/></g>
</svg>
